<?xml version="1.0" encoding="utf-8"?>
<!-- Generator: Adobe Illustrator 24.0.1, SVG Export Plug-In . SVG Version: 6.00 Build 0)  -->
<svg version="1.1" id="Layer_1" xmlns="http://www.w3.org/2000/svg" xmlns:xlink="http://www.w3.org/1999/xlink" x="0px" y="0px"
	 viewBox="0 0 512 137" style="enable-background:new 0 0 512 137;" xml:space="preserve">
<style type="text/css">
	.st0{fill:#FFFFFF;}
</style>
<g>
	<path class="st0" d="M82.3,6.1C56.2,6.1,35,27.4,35,53.5s21.3,47.3,47.3,47.3c18.6,0,33.8-15.2,33.8-33.8S101,33,82.3,33
		C71.1,33,62,42.1,62,53.4s9.1,20.2,20.3,20.2c3.7,0,6.8-3,6.8-6.8c0-3.7-3-6.8-6.8-6.8s-6.8-3-6.8-6.8c0-3.7,3-6.8,6.8-6.8
		c11.2,0,20.2,9.1,20.2,20.2S93.5,87,82.3,87c-18.6,0-33.8-15.2-33.8-33.8s15-33.6,33.8-33.6c26.1,0,47.2,21.3,47.2,47.3
		s-21.1,47.3-47.2,47.3c-33.6,0-60.9-27.2-60.9-60.8c0-3.7-3-6.8-6.8-6.8s-6.8,3-6.8,6.8c0,41.1,33.2,74.4,74.4,74.4
		c33.6,0,60.8-27.2,60.8-60.9S115.9,6.1,82.3,6.1z"/>
	<g>
		<path class="st0" d="M211.6,74.1c0,5.1-0.8,9.6-2.4,13.4c-1.7,3.8-4.4,6.8-8,8.7c-3.8,2.1-8.7,3.2-15.1,3.2s-11.3-1.1-15.1-3.2
			c-3.8-2.1-6.3-5.1-8-8.9c-1.7-3.8-2.4-8.3-2.4-13.6V36.7h14.8v37.8c0,4.5,1.1,7.7,3.2,9.6c2.1,2,4.7,2.9,7.7,2.9
			c2.1,0,3.9-0.5,5.6-1.2c1.7-0.9,2.9-2.1,3.9-4.1c1.1-1.8,1.4-4.2,1.4-7.1V37h14.6v37.2h-0.2V74.1z"/>
		<path class="st0" d="M234.5,99.4c-3,0-6.2-0.5-8.9-1.5c-2.9-1.1-5.4-2.7-7.5-4.8c-2.1-2.3-3.5-5.3-3.9-8.7h12.5
			c0.5,1.5,1.1,2.7,2.1,3.5s2.1,1.2,3,1.7c1.2,0.3,2.1,0.5,2.9,0.5c2.1,0,3.8-0.3,5.1-0.9c1.2-0.6,2-1.5,2-2.7
			c0-1.1-0.5-1.8-1.2-2.4c-0.8-0.6-2.1-1.1-4.2-1.4l-7.1-1.2c-4.1-0.8-7.2-2.1-9.8-4.2c-2.4-2.1-3.8-5-3.8-8.7
			c0-2.7,0.6-5.1,2.1-7.2s3.8-3.8,6.5-5.1c2.9-1.2,6.3-2,10.5-2c5.7,0,10.2,1.2,13.7,3.8c3.3,2.6,5.1,6,5.1,10.4h-12.1
			c-0.3-1.5-1.2-2.7-2.4-3.5c-1.2-0.8-2.9-1.2-4.7-1.2s-3.3,0.3-4.7,0.9c-1.4,0.6-2,1.5-2,2.9c0,0.9,0.5,1.7,1.7,2.3
			c1.1,0.5,2.9,1.1,5.1,1.5l6.3,1.2c2.7,0.6,4.8,1.5,6.3,2.7c1.7,1.2,2.9,2.3,3.8,3.6c0.9,1.2,1.5,2.6,2,3.8
			c0.5,1.2,0.5,2.4,0.5,3.3c0,3-0.9,5.6-2.6,7.7c-1.7,2.1-3.9,3.8-6.9,4.8C241.4,98.8,238.1,99.4,234.5,99.4z"/>
		<path class="st0" d="M268.5,79.8c0,2.1,0.3,3.8,0.9,5.1c0.6,1.4,1.5,2.4,2.9,3.2s2.6,1.1,4.2,1.1c1.8,0,3.5-0.5,4.8-1.2
			c1.4-0.8,2.4-2.1,3-3.9h13c-0.5,3.2-1.8,6-3.8,8.3s-4.7,4.1-7.5,5.3c-2.9,1.2-6,1.8-9.2,1.8c-4.5,0-8.4-0.9-11.9-2.9
			c-3.5-1.8-6-4.5-8-7.8s-2.9-7.2-2.9-11.9c0-4.4,0.9-8.1,2.6-11.8c1.8-3.6,4.2-6.3,7.5-8.4c3.3-2.1,7.1-3.2,11.9-3.2
			c4.7,0,8.6,1.1,11.8,2.9c3,2,5.4,4.7,7.1,8c1.5,3.5,2.4,7.2,2.4,11.6v3.6L268.5,79.8L268.5,79.8z M268.4,71.5h15.4
			c0-1.4-0.3-2.9-0.9-3.9c-0.5-1.2-1.4-2.1-2.6-2.9c-1.2-0.8-2.6-1.1-4.2-1.1c-1.5,0-2.9,0.5-3.9,1.2c-1.2,0.8-2.1,1.8-2.7,2.9
			S268.4,70,268.4,71.5z"/>
		<path class="st0" d="M299.7,98.5v-44h14v11.3c0.6-2.3,1.7-4.4,2.9-6.3c1.2-1.8,2.9-3.3,4.8-4.4c2-1.1,4.1-1.7,6.6-1.7
			c0.3,0,0.6,0,0.9,0s0.5,0,0.5,0.2v13.9c-0.2,0-0.5-0.2-0.5-0.2c-0.3,0-0.5,0-0.6,0c-2.9-0.3-5.1-0.3-6.9,0.2
			c-1.8,0.5-3.2,1.1-4.2,1.8c-1.1,0.8-1.8,1.8-2.1,2.9c-0.5,1.2-0.6,2.4-0.6,3.8v22.6H299.7z"/>
		<path class="st0" d="M331.5,36.8h14.6v49.6h25.6v12.2h-40.4L331.5,36.8z"/>
		<path class="st0" d="M393.5,99.4c-4.5,0-8.3-0.9-11.6-2.9c-3.3-2-5.7-4.7-7.7-8c-1.8-3.5-2.7-7.4-2.7-11.9c0-4.7,0.9-8.7,2.9-12.2
			c1.8-3.5,4.4-6.2,7.7-8.1c3.3-2,7.1-2.9,11.5-2.9c4.5,0,8.4,1.1,11.6,2.9c3.2,2,5.7,4.7,7.5,8.1c1.8,3.5,2.7,7.5,2.7,12.2
			c0,4.5-0.9,8.3-2.7,11.8c-1.8,3.5-4.2,6.2-7.5,8C401.9,98.5,398,99.4,393.5,99.4z M393.5,88.7c2.1,0,3.6-0.6,4.7-2
			c1.2-1.2,2-2.9,2.3-4.7c0.5-2,0.6-3.8,0.6-5.9c0-2-0.3-3.8-0.6-5.7c-0.5-2-1.2-3.5-2.3-4.7c-1.1-1.2-2.7-1.8-4.7-1.8
			s-3.6,0.6-4.7,1.8c-1.2,1.2-2,2.7-2.4,4.7c-0.5,2-0.8,3.8-0.8,5.9c0,2,0.3,3.8,0.6,5.7c0.5,2,1.2,3.6,2.3,4.7
			C389.8,88.1,391.5,88.7,393.5,88.7z"/>
		<path class="st0" d="M437,99.4c-4.5,0-8.3-0.9-11.6-2.9c-3.3-2-5.7-4.7-7.7-8c-1.8-3.5-2.7-7.4-2.7-11.9c0-4.7,0.9-8.7,2.9-12.2
			c1.8-3.5,4.4-6.2,7.7-8.1c3.3-2,7.1-2.9,11.5-2.9c4.5,0,8.4,1.1,11.6,2.9c3.2,2,5.7,4.7,7.5,8.1c1.8,3.5,2.7,7.5,2.7,12.2
			c0,4.5-0.9,8.3-2.7,11.8s-4.2,6.2-7.5,8C445.4,98.5,441.7,99.4,437,99.4z M437.2,88.7c2.1,0,3.6-0.6,4.7-2c1.2-1.2,2-2.9,2.3-4.7
			c0.5-2,0.6-3.8,0.6-5.9c0-2-0.3-3.8-0.6-5.7c-0.5-2-1.2-3.5-2.3-4.7c-1.1-1.2-2.7-1.8-4.7-1.8c-2.1,0-3.6,0.6-4.7,1.8
			c-1.2,1.2-2,2.7-2.4,4.7c-0.5,2-0.8,3.8-0.8,5.9c0,2,0.3,3.8,0.6,5.7c0.5,2,1.2,3.6,2.3,4.7C433.4,88.1,435.2,88.7,437.2,88.7z"/>
		<path class="st0" d="M461.1,112.3V54.5h14.6v5.7c0.8-1.1,1.7-2.1,2.7-2.9c1.1-0.8,2.1-1.5,3.3-2.1c1.2-0.5,2.4-0.9,3.8-1.2
			c1.2-0.3,2.6-0.5,3.8-0.5c3.2,0,6,0.8,8.6,2.4c2.6,1.7,4.5,4.1,5.9,7.4c1.4,3.3,2.1,7.7,2.1,12.8c0,5.4-0.8,9.8-2.4,13.3
			c-1.7,3.5-3.8,5.9-6.6,7.4c-2.9,1.5-5.7,2.4-9,2.4c-1.2,0-2.3-0.2-3.5-0.5c-1.2-0.5-2.1-0.8-3.2-1.4c-1.1-0.6-2-1.2-2.9-2.1
			c-0.9-0.9-1.7-1.8-2.3-2.9v19.7L461.1,112.3L461.1,112.3z M483.7,89c2.3,0,4.2-1.1,5.9-2.9c1.7-2.1,2.4-5.3,2.4-9.6
			c0-3.9-0.8-7.1-2.4-9c-1.5-2.1-3.6-3.2-5.9-3.2c-2.9,0-4.8,1.2-6.3,3.6c-1.2,2.4-2.1,5.4-2.1,8.7c0,2.1,0.3,4.1,0.9,6
			c0.6,2,1.5,3.5,2.7,4.7C480.3,88.5,481.9,89,483.7,89z"/>
	</g>
</g>
</svg>
